ffmpeg started on 2016-12-01 at 03:15:30
Report written to "Output/x264/results/ffmpeg/old_town_cross_2160p50medium3500k.log"
Command line:
Tools/ffmpeg/ffmpeg -benchmark -y -i Input/y4m/old_town_cross_2160p50.y4m -c:v libx264 -preset medium -b:v 3500k -an Output/x264/encoded/old_town_cross_2160p50medium3500k.mkv
ffmpeg version N-82227-gdb23fde Copyright (c) 2000-2016 the FFmpeg developers
  built with gcc 5.4.0 (Ubuntu 5.4.0-6ubuntu1~16.04.2) 20160609
  configuration: --prefix=/home/jaroslav/ffmpeg_build --pkg-config-flags=--static --extra-cflags=-I/home/jaroslav/ffmpeg_build/include --extra-ldflags=-L/home/jaroslav/ffmpeg_build/lib --bindir=/home/jaroslav/bin --enable-gpl --enable-libass --enable-libfdk-aac --enable-libfreetype --enable-libmp3lame --enable-libopus --enable-libtheora --enable-libvorbis --enable-libvpx --enable-libx264 --enable-libx265 --enable-nvenc --enable-libmfx --enable-libxvid --enable-libgsm --enable-libopencore-amrnb --enable-version3 --enable-nonfree
  libavutil      55. 35.100 / 55. 35.100
  libavcodec     57. 66.101 / 57. 66.101
  libavformat    57. 57.100 / 57. 57.100
  libavdevice    57.  2.100 / 57.  2.100
  libavfilter     6. 66.100 /  6. 66.100
  libswscale      4.  3.100 /  4.  3.100
  libswresample   2.  4.100 /  2.  4.100
  libpostproc    54.  2.100 / 54.  2.100
Input #0, yuv4mpegpipe, from 'Input/y4m/old_town_cross_2160p50.y4m':
  Duration: 00:00:10.00, start: 0.000000, bitrate: 4976642 kb/s
    Stream #0:0: Video: rawvideo (I420 / 0x30323449), yuv420p(progressive), 3840x2160, SAR 1:1 DAR 16:9, 50 fps, 50 tbr, 50 tbn, 50 tbc
[libx264 @ 0x4535120] using SAR=1/1
[libx264 @ 0x4535120] using cpu capabilities: MMX2 SSE2Fast SSSE3 SSE4.2 AVX FMA3 AVX2 LZCNT BMI2
[libx264 @ 0x4535120] profile High, level 5.2
[libx264 @ 0x4535120] 264 - core 148 - H.264/MPEG-4 AVC codec - Copyleft 2003-2016 - http://www.videolan.org/x264.html - options: cabac=1 ref=3 deblock=1:0:0 analyse=0x3:0x113 me=hex subme=7 psy=1 psy_rd=1.00:0.00 mixed_ref=1 me_range=16 chroma_me=1 trellis=1 8x8dct=1 cqm=0 deadzone=21,11 fast_pskip=1 chroma_qp_offset=-2 threads=6 lookahead_threads=1 sliced_threads=0 nr=0 decimate=1 interlaced=0 bluray_compat=0 constrained_intra=0 bframes=3 b_pyramid=2 b_adapt=1 b_bias=0 direct=1 weightb=1 open_gop=0 weightp=2 keyint=250 keyint_min=25 scenecut=40 intra_refresh=0 rc_lookahead=40 rc=abr mbtree=1 bitrate=3500 ratetol=1.0 qcomp=0.60 qpmin=0 qpmax=69 qpstep=4 ip_ratio=1.40 aq=1:1.00
Output #0, matroska, to 'Output/x264/encoded/old_town_cross_2160p50medium3500k.mkv':
  Metadata:
    encoder         : Lavf57.57.100
    Stream #0:0: Video: h264 (libx264) (H264 / 0x34363248), yuv420p, 3840x2160 [SAR 1:1 DAR 16:9], q=-1--1, 3500 kb/s, 50 fps, 1k tbn, 50 tbc
    Metadata:
      encoder         : Lavc57.66.101 libx264
    Side data:
      cpb: bitrate max/min/avg: 0/0/3500000 buffer size: 0 vbv_delay: -1
Stream mapping:
  Stream #0:0 -> #0:0 (rawvideo (native) -> h264 (libx264))
Press [q] to stop, [?] for help
frame=   47 fps= 18 q=0.0 size=       0kB time=00:00:00.00 bitrate=N/A speed=   0x    frame=   56 fps= 18 q=48.0 size=       1kB time=00:00:00.06 bitrate=  96.3kbits/s speed=0.0199x    frame=   65 fps= 18 q=47.0 size=       1kB time=00:00:00.24 bitrate=  24.4kbits/s speed=0.0675x    frame=   74 fps= 18 q=44.0 size=       1kB time=00:00:00.42 bitrate=  13.9kbits/s speed=0.103x    frame=   82 fps= 18 q=43.0 size=       1kB time=00:00:00.58 bitrate=  10.1kbits/s speed=0.127x    frame=   90 fps= 18 q=43.0 size=       1kB time=00:00:00.74 bitrate=   7.9kbits/s speed=0.146x    frame=   98 fps= 17 q=42.0 size=       1kB time=00:00:00.90 bitrate=   6.5kbits/s speed=0.157x    frame=  107 fps= 17 q=42.0 size=       1kB time=00:00:01.08 bitrate=   5.4kbits/s speed=0.173x    frame=  116 fps= 17 q=42.0 size=       1kB time=00:00:01.26 bitrate=   4.7kbits/s speed=0.184x    frame=  124 fps= 17 q=42.0 size=       1kB time=00:00:01.42 bitrate=   4.1kbits/s speed=0.193x    frame=  133 fps= 17 q=42.0 size=       1kB time=00:00:01.60 bitrate=   3.7kbits/s speed=0.203x    frame=  140 fps= 17 q=42.0 size=       1kB time=00:00:01.74 bitrate=   3.4kbits/s speed=0.207x    frame=  147 fps= 16 q=42.0 size=       1kB time=00:00:01.88 bitrate=   3.1kbits/s speed=0.21x    frame=  155 fps= 16 q=42.0 size=       1kB time=00:00:02.04 bitrate=   2.9kbits/s speed=0.216x    frame=  163 fps= 16 q=41.0 size=       1kB time=00:00:02.20 bitrate=   2.7kbits/s speed=0.22x    frame=  171 fps= 16 q=41.0 size=       1kB time=00:00:02.36 bitrate=   2.5kbits/s speed=0.224x    frame=  179 fps= 16 q=41.0 size=       1kB time=00:00:02.52 bitrate=   2.3kbits/s speed=0.228x    frame=  188 fps= 16 q=41.0 size=       1kB time=00:00:02.70 bitrate=   2.2kbits/s speed=0.233x    frame=  196 fps= 16 q=41.0 size=       1kB time=00:00:02.86 bitrate=   2.1kbits/s speed=0.236x    frame=  203 fps= 16 q=41.0 size=       1kB time=00:00:03.00 bitrate=   2.0kbits/s speed=0.237x    frame=  211 fps= 16 q=41.0 size=       1kB time=00:00:03.16 bitrate=   1.9kbits/s speed=0.24x    frame=  218 fps= 16 q=41.0 size=       1kB time=00:00:03.30 bitrate=   1.8kbits/s speed=0.242x    frame=  228 fps= 16 q=41.0 size=       1kB time=00:00:03.50 bitrate=   1.7kbits/s speed=0.246x    frame=  236 fps= 16 q=41.0 size=       1kB time=00:00:03.66 bitrate=   1.6kbits/s speed=0.248x    frame=  244 fps= 16 q=41.0 size=       1kB time=00:00:03.82 bitrate=   1.5kbits/s speed=0.25x    frame=  251 fps= 16 q=41.0 size=       1kB time=00:00:03.96 bitrate=   1.5kbits/s speed=0.25x    frame=  260 fps= 16 q=41.0 size=       1kB time=00:00:04.14 bitrate=   1.4kbits/s speed=0.253x    frame=  262 fps= 15 q=41.0 size=       1kB time=00:00:04.18 bitrate=   1.4kbits/s speed=0.24x    frame=  263 fps= 15 q=41.0 size=       1kB time=00:00:04.20 bitrate=   1.4kbits/s speed=0.233x    frame=  265 fps= 14 q=41.0 size=       1kB time=00:00:04.24 bitrate=   1.4kbits/s speed=0.225x    frame=  270 fps= 14 q=41.0 size=       1kB time=00:00:04.34 bitrate=   1.4kbits/s speed=0.223x    frame=  275 fps= 14 q=41.0 size=       1kB time=00:00:04.44 bitrate=   1.3kbits/s speed=0.222x    frame=  280 fps= 14 q=41.0 size=       1kB time=00:00:04.54 bitrate=   1.3kbits/s speed=0.22x    frame=  285 fps= 13 q=41.0 size=       1kB time=00:00:04.64 bitrate=   1.3kbits/s speed=0.219x    frame=  290 fps= 13 q=41.0 size=       1kB time=00:00:04.74 bitrate=   1.2kbits/s speed=0.217x    frame=  295 fps= 13 q=38.0 size=       1kB time=00:00:04.84 bitrate=   1.2kbits/s speed=0.214x    frame=  305 fps= 13 q=41.0 size=    1961kB time=00:00:05.04 bitrate=3186.7kbits/s speed=0.218x    frame=  314 fps= 13 q=41.0 size=    1961kB time=00:00:05.22 bitrate=3076.8kbits/s speed=0.221x    frame=  323 fps= 13 q=41.0 size=    1961kB time=00:00:05.40 bitrate=2974.3kbits/s speed=0.223x    frame=  332 fps= 13 q=41.0 size=    1961kB time=00:00:05.58 bitrate=2878.3kbits/s speed=0.225x    frame=  339 fps= 13 q=41.0 size=    1961kB time=00:00:05.72 bitrate=2807.9kbits/s speed=0.225x    frame=  349 fps= 13 q=41.0 size=    1961kB time=00:00:05.92 bitrate=2713.1kbits/s speed=0.228x    frame=  357 fps= 13 q=41.0 size=    1961kB time=00:00:06.08 bitrate=2641.7kbits/s speed=0.229x    frame=  364 fps= 13 q=41.0 size=    1961kB time=00:00:06.22 bitrate=2582.2kbits/s speed=0.23x    frame=  372 fps= 13 q=41.0 size=    1961kB time=00:00:06.38 bitrate=2517.5kbits/s speed=0.231x    frame=  379 fps= 13 q=41.0 size=    1961kB time=00:00:06.52 bitrate=2463.4kbits/s speed=0.232x    frame=  388 fps= 14 q=41.0 size=    1961kB time=00:00:06.70 bitrate=2397.3kbits/s speed=0.234x    frame=  396 fps= 14 q=41.0 size=    1961kB time=00:00:06.86 bitrate=2341.4kbits/s speed=0.235x    frame=  404 fps= 14 q=41.0 size=    1961kB time=00:00:07.02 bitrate=2288.0kbits/s speed=0.236x    frame=  412 fps= 14 q=41.0 size=    1961kB time=00:00:07.18 bitrate=2237.0kbits/s speed=0.237x    frame=  420 fps= 14 q=41.0 size=    1961kB time=00:00:07.34 bitrate=2188.3kbits/s speed=0.238x    frame=  428 fps= 14 q=41.0 size=    1961kB time=00:00:07.50 bitrate=2141.6kbits/s speed=0.239x    frame=  436 fps= 14 q=41.0 size=    1961kB time=00:00:07.66 bitrate=2096.9kbits/s speed=0.24x    frame=  443 fps= 14 q=41.0 size=    1961kB time=00:00:07.80 bitrate=2059.2kbits/s speed=0.24x    frame=  451 fps= 14 q=41.0 size=    1961kB time=00:00:07.96 bitrate=2017.8kbits/s speed=0.241x    frame=  459 fps= 14 q=41.0 size=    1961kB time=00:00:08.12 bitrate=1978.1kbits/s speed=0.242x    frame=  468 fps= 14 q=41.0 size=    1961kB time=00:00:08.30 bitrate=1935.2kbits/s speed=0.243x    frame=  476 fps= 14 q=41.0 size=    1961kB time=00:00:08.46 bitrate=1898.6kbits/s speed=0.244x    frame=  485 fps= 14 q=41.0 size=    1961kB time=00:00:08.64 bitrate=1859.0kbits/s speed=0.244x    frame=  495 fps= 14 q=41.0 size=    1961kB time=00:00:08.84 bitrate=1817.0kbits/s speed=0.246x    frame=  500 fps= 12 q=-1.0 Lsize=    4245kB time=00:00:09.94 bitrate=3498.0kbits/s speed=0.247x    
video:4241kB audio:0kB subtitle:0kB other streams:0kB global headers:0kB muxing overhead: 0.100500%
bench: utime=128.560s
bench: maxrss=1922824kB
[libx264 @ 0x4535120] frame I:3     Avg QP:37.71  size: 98471
[libx264 @ 0x4535120] frame P:183   Avg QP:39.64  size:  9784
[libx264 @ 0x4535120] frame B:314   Avg QP:41.26  size:  7184
[libx264 @ 0x4535120] consecutive B-frames: 16.0%  0.8%  0.0% 83.2%
[libx264 @ 0x4535120] mb I  I16..4: 15.1% 77.7%  7.2%
[libx264 @ 0x4535120] mb P  I16..4:  0.1%  0.0%  0.0%  P16..4: 13.9%  0.3%  0.3%  0.0%  0.0%    skip:85.4%
[libx264 @ 0x4535120] mb B  I16..4:  0.0%  0.0%  0.0%  B16..8: 25.9%  0.0%  0.0%  direct: 0.0%  skip:74.1%  L0:43.0% L1:57.0% BI: 0.0%
[libx264 @ 0x4535120] final ratefactor: 33.56
[libx264 @ 0x4535120] 8x8 transform intra:73.8% inter:98.4%
[libx264 @ 0x4535120] coded y,uvDC,uvAC intra: 26.9% 30.3% 6.6% inter: 1.2% 1.0% 0.0%
[libx264 @ 0x4535120] i16 v,h,dc,p: 25% 59%  4% 12%
[libx264 @ 0x4535120] i8 v,h,dc,ddl,ddr,vr,hd,vl,hu: 31% 17% 31%  3%  3%  3%  5%  2%  4%
[libx264 @ 0x4535120] i4 v,h,dc,ddl,ddr,vr,hd,vl,hu: 28% 35%  8%  5%  6%  4%  8%  3%  4%
[libx264 @ 0x4535120] i8c dc,h,v,p: 84%  8%  7%  1%
[libx264 @ 0x4535120] Weighted P-Frames: Y:0.5% UV:0.0%
[libx264 @ 0x4535120] ref P L0: 67.1% 23.6%  8.0%  1.3%  0.0%
[libx264 @ 0x4535120] ref B L0: 94.5%  5.0%  0.5%
[libx264 @ 0x4535120] ref B L1: 98.2%  1.8%
[libx264 @ 0x4535120] kb/s:3473.29
